<?xml version="1.0" encoding="utf-8"?><svg viewBox="0 0 30.031 30" xmlns="http://www.w3.org/2000/svg" xmlns:xlink="http://www.w3.org/1999/xlink"><style>:root>svg{display:none}:root>svg:target{display:block}</style><svg viewBox="0 0 11 6" id="arrow_drop_down" xmlns="http://www.w3.org/2000/svg"><defs><style>.acls-1{font-size:25px;fill:#061e37;font-family:"Material Icons"}</style></defs><text id="aarrow_drop_down" class="acls-1" x="-7" y="15.002">arrow_drop_down</text></svg><svg viewBox="0 0 23 15" id="bottom-arrow" xmlns="http://www.w3.org/2000/svg"><defs><style>.bcls-1{font-size:45px;fill:#fff;font-family:"Material Icons"}</style></defs><text id="bkeyboard_arrow_down" class="bcls-1" x="-11" y="31.001">keyboard_arrow_down</text></svg><svg viewBox="0 0 30.031 30" id="logo" xmlns="http://www.w3.org/2000/svg"><defs><style>.ccls-1{fill:#fff;fill-rule:evenodd}</style></defs><path class="ccls-1" d="M25.663 4.325l1.118.04a4.329 4.329 0 01.959.04h1.518a1.08 1.08 0 01.758.96h-.04l-.04.24H29.9v.12l-.079.04v.08l-.959.92-2.8 2.841H21.79l-.959 1-.2.16a8.538 8.538 0 01-.959 1l-1.318 1.361a5.924 5.924 0 00-.719.64L15.6 15.846h-.12l-.04.08-.2.04v.04a1.2 1.2 0 01-.759-.16l-.2-.24-.08-.04-.04-.16h-.04v-.08h-.04v-.08h-.04v-.48h.04l.04-.16h.04v-.12l.08-.04v-.08h.04a.447.447 0 00.12-.2h.08a.226.226 0 01.2-.2v-.08h.08v-.08h.08v-.08h.08v-.08H15c.029-.111.011-.09.12-.12v-.08h.08v-.08h.08v-.08h.08v-.08h.08v-.08h.08c.029-.111.011-.09.12-.12v-.08h.08v-.08h.08v-.08h.08v-.08h.08v-.08h.08c.029-.111.011-.09.12-.12v-.08h.08v-.08h.08v-.08h.08v-.08h.08v-.08h.08c.029-.111.011-.089.12-.12v-.08h.08v-.08h.08a2.189 2.189 0 01.559-.6v-.04l1.318-1.281a1.937 1.937 0 01.559-.52v-.08h.08v-.08h.08v-.08h.08c.029-.111.011-.09.12-.12v-.08h.08v-.08h.08v-.08h.08v-.08h.08V8.6c.11-.029.089-.011.119-.12h.08V8.4h.08v-.08h.08v-.08h.08a10.07 10.07 0 00.04-1.56v-2.8a1.844 1.844 0 00.2-.2 7.414 7.414 0 00.878-.841l2.037-2 .559-.6h.08l.04-.08h.08l.04-.08a.974.974 0 01.519-.08v.04h.119v.04h.08l.04.08h.12V.2l.24.2v.08h.04v.08h.04v.12h.039v.68c.069.247-.03.666.04.92h.04v2.04zm-7.348 1.76l-.359-.12v-.04l-.24-.04v-.04h-.08v-.04l-.239-.04v-.04h-.12v-.04L17 5.645V5.6l-.28-.04v-.04l-1.557-.28h-.522V5.2a5.316 5.316 0 00-1.278.04h-.519v.04h-.32v.04h-.279v.041h-.2V5.4h-.24v.04h-.16v.04l-.359.04L9.849 6v.04l-.16.04v.04H9.61v.041h-.12V6.2l-.239.08v.04H9.17v.04h-.08v.04l-.24.08-.04.08-.24.08-.04.08-.16.04-.04.08-.16.04v.04l-.12.04-.04.08h-.08l-.08.12h-.08l-.04.08h-.08l-.08.12h-.08l-.08.12h-.08l-.12.16h-.08l-.2.24h-.08l-.279.32-.679.64v.08l-.24.2v.08l-.16.12v.08l-.12.08v.08l-.12.08v.08l-.08.04v.08l-.12.08V10l-.08.04v.08l-.08.04-.04.159-.08.041-.04.16-.08.04-.08.24-.08.04v.08h-.04V11h-.04v.08h-.04v.08h-.04v.08H4.3l-.08.24h-.04v.12h-.04v.08H4.1v.08h-.04v.08h-.04v.12h-.04v.08h-.04l-.04.24h-.04v.08h-.04l-.4 1.44-.08.72H3.3v.32h-.04v.52h-.04a5.323 5.323 0 00.04 1.28v.52h.04v.32h.04v.28h.04v.2h.04v.24h.04v.16h.04v.2h.04v.16h.04l.04.28h.04v.12h.04v.16h.04v.12h.04v.12h.04v.12h.04v.08h.04l.04.24h.04v.08h.04v.12h.04l.04.16h.04v.08h.04v.12h.04l.08.24h.04v.08h.04v.08h.04l.08.24.08.04.08.24.08.04.04.16.08.04.04.16.08.04v.08h.04l.04.12.08.04v.08l.12.08v.08l.12.08v.08l.12.08v.08l.16.12v.08l.24.2v.08l.679.64.279.32h.08l.2.24h.08l.12.16h.08l.08.12h.08l.08.12h.08l.08.12h.08l.04.08h.08l.04.08.12.04v.04l.16.04.04.08.16.04.04.08.24.08.04.08h.08v.04h.08v.04h.08v.04h.08v.04h.08v.04h.08v.04l.24.08v.04l.2.04v.04h.08V26h.12v.04h.08v.04l.239.04v.04h.08v.04l.359.08v.04h.16v.04h.12v.04l.279.04v.04h.16v.04l.359.04v.04h.24v.04h.2v.04h.279v.04l.839.04v.04a5.294 5.294 0 001.278-.04l.839-.04v-.04h.271v-.04h.2v-.04h.24v-.04h.16v-.04l.359-.04v-.04h.12v-.04H17v-.04h.12v-.04h.16v-.04h.12v-.033h.12v-.04h.12v-.04h.08v-.04l.24-.04v-.04h.08v-.04h.12v-.04l.16-.04v-.04h.08v-.04h.12v-.04l.24-.08v-.04h.08v-.04h.08v-.04l.24-.08.04-.08.239-.08.04-.08.16-.04.04-.08.16-.04.04-.08h.08v-.04l.119-.04.04-.08h.08l.04-.08.12-.04.08-.12h.08l.08-.12h.079l.12-.16h.08l.2-.24h.08l.4-.44.559-.52v-.08l.24-.2v-.08l.16-.12v-.08l.119-.08v-.08l.12-.08.04-.12.08-.04v-.08l.08-.04.04-.12h.04v-.08l.08-.04.04-.16.079-.04.04-.16.08-.04.08-.24.08-.04v-.08h.04v-.08h.04v-.08h.04v-.08h.04v-.08h.04v-.08h.04l.079-.24h.04v-.12h.04l.04-.16h.04l.479-1.44.04-.36h.04v-.16h.04v-.24h.04v-.2h.04l.08-.72v-.4h.04a5.343 5.343 0 00-.04-1.28l-.04-.84h-.04v-.28h-.04v-.2h-.04v-.24h-.04l-.04-.36h-.04v-.16h-.04a23.57 23.57 0 00-.04-.28h-.039v-.12h-.04v-.16h-.04v-.12h-.04v-.12h-.04v-.12h-.04v-.08h-.04l-.04-.24h-.04l-.12-.36a9.655 9.655 0 002.556-.12l.519-.08v-.04l.12-.041v-.04c.078-.019.053.023.08.04a1.673 1.673 0 01.2.6c.177.456.252 1.027.4 1.52l.04.52h.04v.28h.04v.4h.04v.52a4.535 4.535 0 010 1.52v.52H27.9v.4h-.04v.28h-.04v.28c-.056.188-.1.458-.16.64v.2h-.04v.16h-.04v.159h-.04v.16h-.04v.16h-.04v.16h-.04v.12h-.039v.12h-.04v.12H27.3l-.04.28h-.04v.08h-.04l-.08.36h-.04v.08h-.04v.12h-.04l-.04.2h-.04v.08h-.04v.12h-.04l-.079.24H26.7v.08h-.04v.12h-.04l-.08.24h-.04v.08h-.04l-.08.24-.08.04v.08h-.04v.08h-.04v.08h-.04v.08l-.079.04-.08.24-.08.04v.08l-.08.04-.04.16-.08.04v.08l-.08.04v.08l-.08.04v.08h-.039l-.04.12-.08.04v.08l-.12.08v.08l-.12.08v.08l-.12.08v.08l-.159.12v.08l-.16.12a9.023 9.023 0 01-1.038 1.121l-.4.44h-.08l-.2.24h-.08l-.16.2h-.08l-.12.16h-.079l-.08.12h-.08l-.08.12h-.08l-.08.12h-.08a2.982 2.982 0 01-.04.08l-.119.04v.04h-.08a2.982 2.982 0 00-.04.08h-.08l-.04.08h-.08l-.04.08-.16.04a2.982 2.982 0 01-.04.08l-.119.04v.04h-.08v.04h-.08v.04h-.08l-.04.08h-.08v.041h-.08v.04h-.08v.04h-.079a2.982 2.982 0 00-.04.08l-.24.08v.04h-.08v.04l-.239.08v.04h-.12v.04h-.08v.041l-.24.08v.04h-.12v.04h-.08v.04h-.12v.04h-.08v.04h-.12v.04h-.08v.04l-.359.08v.04h-.08v.04l-.279.04v.04h-.12v.04H18v.04h-.12v.04h-.16v.04h-.16v.04h-.16v.04h-.16v.04h-.16v.04h-.2v.04h-.2v.04h-.2v.04h-.24v.04l-.559.04v.04l-1.6.08-1.4-.04v-.04h-.356v-.04h-.32l-1.877-.4a14.073 14.073 0 01-2.716-1.16h-.08v-.04h-.08v-.04h-.08v-.041h-.08l-.04-.08-.24-.08v-.04l-.12-.04-.04-.08-.16-.04v-.04l-.12-.04-.04-.08h-.08l-.04-.08h-.08v-.04l-.12-.04-.04-.08H5.9l-.08-.12h-.08l-.08-.12h-.08l-.08-.12h-.08l-.12-.16h-.08l-.08-.12H5.1l-.04-.08h-.08l-.2-.24H4.7l-.479-.52-.679-.64v-.08l-.24-.2v-.08l-.2-.16v-.08l-.16-.12v-.08l-.12-.08v-.08l-.12-.08v-.08l-.12-.08v-.08l-.08-.04-.04-.12h-.04v-.08l-.08-.04v-.08l-.08-.04v-.08l-.08-.04-.04-.16-.08-.04-.04-.12h-.04l-.08-.24-.08-.04v-.08h-.04v-.08h-.04v-.08H1.7v-.08a14 14 0 01-1.158-2.72l-.04-.32h-.04v-.16h-.04v-.16h-.04v-.16h-.04v-.2H.3l-.04-.4H.22v-.24H.18v-.28H.14l-.04-.68H.06v-.52a4.514 4.514 0 010-1.52v-.52H.1l.04-.68h.04v-.28c.055-.188.1-.458.16-.64v-.2h.04v-.16h.04v-.16h.04v-.16H.5v-.16h.04v-.16h.04v-.12h.04v-.12h.04v-.12H.7v-.16h.04v-.12h.04v-.08h.04l.08-.36h.04v-.08h.04v-.12h.04v-.08h.04v-.12h.04v-.08h.04v-.12h.04l.08-.24h.04v-.08h.04v-.12h.04l.08-.24h.04v-.08h.04l.08-.24.08-.04v-.08h.04v-.08h.04v-.08h.04v-.08l.08-.04.08-.24h.04l.04-.12.08-.04.04-.16h.04l.04-.12.08-.04v-.08h.04l.04-.119.08-.041V8l.12-.08v-.08l.08-.04v-.08l.12-.08v-.08l.12-.08V7.4l.16-.12V7.2l.12-.08v-.04l.08-.04v-.08l.24-.2v-.08l.6-.56.559-.6h.08l.2-.24h.08l.16-.2H5.3l.12-.16h.08l.08-.12h.08l.08-.12h.08l.04-.08h.08l.08-.12h.08l.04-.08h.08l.04-.08h.08l.04-.08h.08l.04-.08.16-.04.04-.08.12-.04v-.04h.08v-.04h.08v-.04h.08l.04-.08h.08v-.04h.08v-.04h.08v-.04h.08l.04-.08h.08v-.04l.24-.08v-.04l.24-.08v-.04h.12v-.04h.08v-.04l.24-.08v-.04h.12v-.04h.08v-.04h.12V3h.08v-.04h.12v-.04h.08v-.04l.359-.08v-.04h.08v-.04l.28-.04v-.04h.12V2.6h.12v-.04h.12v-.04l.32-.04v-.04h.16V2.4h.16v-.04h.16v-.036h.2v-.04l.4-.04V2.2h.24v-.04h.279v-.04h.28v-.04h.359v-.04h.559a4.493 4.493 0 011.518 0h.546v.04h.36v.04h.279v.04h.279v.04l.439.04v.04l.4.04v.041l.323.039v.04h.16v.04h.16v.04h.16v.04H18v.04h.12v.04h.12v.04h.16v.04h.12v.04l.2.04v.04a1.156 1.156 0 00-.2.24v.2h-.04v.16h-.04v.16h-.04v.16h-.04v.16h-.04v2.16zm3.435 6.641l.12.4h.039v.12h.04v.12h.04v.12h.04l.04.28h.04l.24 1.24v.44h.04v.6a5.454 5.454 0 01-.16 1.48l-.04.4h-.04l-.04.32h-.04l-.04.28h-.04v.12h-.04v.12h-.04v.12h-.039v.08h-.04v.12h-.04v.08h-.04v.12h-.04l-.04.16h-.04v.08h-.04v.12h-.04l-.04.16h-.04l-.04.16-.08.04-.08.24-.079.04-.04.16h-.04l-.04.12-.08.04v.08h-.04l-.04.12-.08.04v.08l-.12.08v.08l-.119.08v.08l-.2.16v.08l-.4.36-.519.56h-.08l-.16.2h-.08l-.08.12h-.08l-.08.12h-.08l-.04.08-.12.04v.04h-.08l-.04.08-.12.04v.04l-.16.04-.04.08-.24.08-.04.08-.16.04v.04l-.16.04v.04h-.12v.04h-.08v.04l-.16.04v.04h-.12v.04h-.08v.04l-.2.04v.04h-.12v.04h-.12v.04h-.12v.04l-.28.04v.04l-.319.041v.04h-.2v.04h-.2v.04h-.234v.04H15v.04h-.438a4.885 4.885 0 01-1.837-.08h-.24l-1.358-.36v-.04h-.08v-.04h-.12v-.04h-.08v-.04h-.12v-.04l-.16-.04v-.04h-.08v-.04l-.359-.12-.04-.08h-.08v-.04h-.08v-.04h-.08v-.04h-.08l-.04-.08-.16-.04-.04-.08H9.45l-.04-.08h-.08v-.04l-.12-.04-.04-.08h-.08l-.08-.12h-.08l-.08-.12h-.08l-.16-.2h-.08l-.679-.72-.24-.2v-.08l-.2-.16v-.08l-.12-.08v-.08l-.12-.08v-.08l-.08-.04v-.08l-.08-.04v-.08l-.08-.04v-.08l-.08-.04-.04-.16-.08-.04v-.08h-.04v-.08h-.04v-.08h-.04v-.081l-.08-.04-.12-.36h-.04v-.08h-.04l-.04-.16h-.04v-.12h-.04v-.08h-.04v-.12h-.04v-.08H6.1v-.12h-.04v-.12h-.04v-.12h-.04v-.16h-.04v-.12H5.9l-.24-1.24v-.44h-.04a4.414 4.414 0 01.04-1.12v-.44c.081-.284.112-.651.2-.92v-.16h.04v-.16h.04v-.12h.04v-.16h.04v-.12h.04v-.12h.04v-.12h.04v-.08h.04v-.12h.04v-.08h.04v-.12h.04l.04-.16h.04v-.08h.04v-.12h.04l.04-.16h.04v-.08l.08-.04v-.08h.04v-.08h.04v-.08h.04v-.08l.08-.04.04-.16h.04l.04-.12.08-.041v-.08h.04l.04-.12.08-.04v-.08l.12-.08v-.08l.12-.08v-.08l.2-.16v-.08l.479-.44.439-.48h.08l.16-.2h.08l.08-.12h.08l.08-.12h.08l.04-.08.12-.04V9h.08l.04-.08.12-.04v-.04l.16-.04.04-.08.24-.08V8.6h.08l.04-.08.359-.12v-.04h.08v-.04l.16-.04v-.04h.12V8.2h.08v-.04h.12v-.04h.08v-.035h.12v-.04h.12V8h.12v-.04l.28-.04v-.04h.16v-.04h.16V7.8h.2v-.04h.2v-.035h.24v-.04H13v-.04h.439a4.393 4.393 0 011.118-.04v.04H15v.04h.28v.04h.24v.041h.2V7.8l.359.04v.04h.16v.04l.28.04V8h.12v.04h.12v.04h.12v.041h.08v.04a1.017 1.017 0 01.4.16h-.04a1.193 1.193 0 01-.24.24l-.479.48-.439.48-.2.16v.08l-.12.04-.04.08-.2.16-.2.28h-.081l-.479.52h-.4a3.023 3.023 0 00-.879-.04v.04H13.2v.04H13v.04h-.2v.04h-.16v.04h-.12v.04h-.16v.04h-.08v.04l-.24.041v.04l-.16.04v.04h-.12v.04h-.08v.04h-.08l-.04.08-.24.08-.04.08-.16.04-.08.12h-.08l-.04.08h-.08l-.12.16a5.158 5.158 0 00-1.637 2.24l-.04.28h-.04v.12h-.04v.16h-.04v.2a4.1 4.1 0 000 2l.04.361h.04v.12h.04l.04.28h.04v.08h.04v.12h.04l.04.16h.04l.12.36.08.04.04.16.08.04.04.16.12.08.04.12h.04v.08l.16.12a5.142 5.142 0 002.8 1.8H13v.04h.2v.04h.359v.04a2.682 2.682 0 00.879-.04h.362v-.04h.2v-.04h.2v-.04h.16v-.04h.12v-.04h.16v-.04h.08v-.04l.24-.04v-.04l.16-.04v-.04l.359-.12.04-.08.16-.04.04-.08h.081v-.04h.08l.08-.12h.08l.04-.08h.08l.12-.16h.08l.359-.4.28-.24v-.08l.16-.12v-.08l.08-.04v-.08l.12-.08v-.08h.041v-.08l.08-.04.04-.16.08-.04v-.08h.04l.04-.16h.04v-.12h.04l.04-.16h.04l.04-.2h.04l.04-.28H19v-.12h.04v-.16h.04v-.2h.04v-.2h.04v-.36a4.954 4.954 0 000-1.24l.279-.2.04-.12.479-.4v-.08h.04l.159-.2h.08l.04-.08h.04l.359-.44h.08l.08-.12.08-.04v-.08l.24-.2.04-.08h.079l.08-.12.08-.04v-.08h.04l.16-.2h.12z"/></svg><svg viewBox="0 0 18 14" id="mail" xmlns="http://www.w3.org/2000/svg"><defs><style>.dcls-1{font-size:20px;fill:#061e37;text-anchor:middle;font-family:"Material Icons"}</style></defs><text id="dmail" class="dcls-1" x="9" y="17.001"><tspan x="9">mail</tspan></text></svg><svg viewBox="0 0 14 14" id="rss_feed" xmlns="http://www.w3.org/2000/svg"><defs><style>.ecls-1{font-size:20px;fill:#061e37;text-anchor:middle;font-family:"Material Icons"}</style></defs><text id="erss_feed" class="ecls-1" x="7" y="16.999"><tspan x="7">rss_feed</tspan></text></svg><svg viewBox="0 0 18 18" id="settings" xmlns="http://www.w3.org/2000/svg"><defs><style>.fcls-1{font-size:20px;fill:#061e37;text-anchor:middle;font-family:"Material Icons"}</style></defs><text id="fsettings" class="fcls-1" x="9" y="18.999"><tspan x="9">settings</tspan></text></svg><svg viewBox="0 0 20 12" id="team" xmlns="http://www.w3.org/2000/svg"><defs><style>.gcls-1{font-size:20px;fill:#061e37;text-anchor:middle;font-family:"Material Icons"}</style></defs><text id="ggroup" class="gcls-1" x="10" y="16"><tspan x="10">group</tspan></text></svg><svg viewBox="0 0 23 14" id="top-arrow" xmlns="http://www.w3.org/2000/svg"><defs><style>.hcls-1{font-size:45px;fill:#fff;font-family:"Material Icons"}</style></defs><text id="hkeyboard_arrow_up" class="hcls-1" x="-11" y="29.999">keyboard_arrow_up</text></svg><svg viewBox="0 0 18 11" id="trending_up" xmlns="http://www.w3.org/2000/svg"><defs><style>.icls-1{font-size:20px;fill:#061e37;text-anchor:middle;font-family:"Material Icons"}</style></defs><text id="itrending_up" class="icls-1" x="9" y="16.002"><tspan x="9">trending_up</tspan></text></svg></svg>